<svg width="800" height="800" viewBox="0 0 800 800" fill="none" xmlns="http://www.w3.org/2000/svg">
<path opacity="0.1" d="M157.16 168.945C152.533 172.979 148.116 177.319 143.934 181.947C130.006 197.359 118.956 215.655 111.418 235.792C103.88 255.929 100 277.511 100 299.307C100 321.103 103.88 342.687 111.418 362.823C118.956 382.96 130.006 401.257 143.934 416.667L350.54 645.273C377.01 674.563 422.99 674.563 449.46 645.273L536.823 548.61L157.16 168.945Z" fill="black"/>
<path d="M159.834 166.667C154.229 171.331 148.915 176.435 143.934 181.946C130.006 197.358 118.956 215.655 111.418 235.791C103.88 255.928 100 277.511 100 299.307C100 321.103 103.88 342.687 111.418 362.823C118.956 382.96 130.006 401.257 143.934 416.667L350.54 645.273C377.01 674.56 422.99 674.56 449.46 645.273L538.97 546.23" stroke="black" stroke-width="66.6667" stroke-linecap="round" stroke-linejoin="round"/>
<path d="M100 100L633.333 633.333" stroke="black" stroke-width="66.6667" stroke-linecap="round" stroke-linejoin="round"/>
<path d="M307.406 145.967C325.604 154.308 342.14 166.534 356.07 181.946C379.58 207.961 420.423 207.961 443.937 181.946C472.067 150.82 510.22 133.333 550.003 133.333C589.783 133.333 627.937 150.82 656.067 181.946C684.2 213.072 700.003 255.288 700.003 299.306C700.003 343.327 684.2 385.54 656.067 416.667L625.943 450" stroke="black" stroke-width="66.6667" stroke-linecap="round" stroke-linejoin="round"/>
</svg>
